<mxfile host="Electron" modified="2024-01-08T20:04:34.732Z" agent="Mozilla/5.0 (Macintosh; Intel Mac OS X 10_15_7) AppleWebKit/537.36 (KHTML, like Gecko) draw.io/22.0.3 Chrome/114.0.5735.289 Electron/25.8.4 Safari/537.36" etag="WIEe09JcwFrtBnIO5hE1" version="22.0.3" type="device">
  <diagram name="Page-1" id="Mu60lrKRsMgEofHsvhvA">
    <mxGraphModel dx="1421" dy="784" grid="1" gridSize="10" guides="1" tooltips="1" connect="1" arrows="1" fold="1" page="1" pageScale="0.5" pageWidth="1600" pageHeight="1200" math="0" shadow="0">
      <root>
        <mxCell id="0" />
        <mxCell id="1" parent="0" />
        <mxCell id="d3RqZ88ddamns4muxg5y-82" value="" style="rounded=0;whiteSpace=wrap;html=1;" parent="1" vertex="1">
          <mxGeometry x="90" y="50" width="650" height="540" as="geometry" />
        </mxCell>
        <mxCell id="d3RqZ88ddamns4muxg5y-87" value="" style="edgeStyle=none;orthogonalLoop=1;jettySize=auto;html=1;rounded=0;endArrow=none;endFill=0;" parent="1" edge="1">
          <mxGeometry width="80" relative="1" as="geometry">
            <mxPoint x="1" y="30" as="sourcePoint" />
            <mxPoint x="799" y="30" as="targetPoint" />
            <Array as="points" />
          </mxGeometry>
        </mxCell>
        <mxCell id="d3RqZ88ddamns4muxg5y-64" value="" style="sketch=0;html=1;dashed=0;whitespace=wrap;fillColor=#2875E2;strokeColor=#ffffff;points=[[0.005,0.63,0],[0.1,0.2,0],[0.9,0.2,0],[0.5,0,0],[0.995,0.63,0],[0.72,0.99,0],[0.5,1,0],[0.28,0.99,0]];verticalLabelPosition=bottom;align=center;verticalAlign=top;shape=mxgraph.kubernetes.icon;prIcon=pod" parent="1" vertex="1">
          <mxGeometry x="551.23" y="236" width="50" height="48" as="geometry" />
        </mxCell>
        <mxCell id="d3RqZ88ddamns4muxg5y-60" value="" style="sketch=0;html=1;dashed=0;whitespace=wrap;fillColor=#2875E2;strokeColor=#ffffff;points=[[0.005,0.63,0],[0.1,0.2,0],[0.9,0.2,0],[0.5,0,0],[0.995,0.63,0],[0.72,0.99,0],[0.5,1,0],[0.28,0.99,0]];verticalLabelPosition=bottom;align=center;verticalAlign=top;shape=mxgraph.kubernetes.icon;prIcon=pod" parent="1" vertex="1">
          <mxGeometry x="345.01" y="236" width="50" height="48" as="geometry" />
        </mxCell>
        <mxCell id="d3RqZ88ddamns4muxg5y-59" value="" style="sketch=0;html=1;dashed=0;whitespace=wrap;fillColor=#2875E2;strokeColor=#ffffff;points=[[0.005,0.63,0],[0.1,0.2,0],[0.9,0.2,0],[0.5,0,0],[0.995,0.63,0],[0.72,0.99,0],[0.5,1,0],[0.28,0.99,0]];verticalLabelPosition=bottom;align=center;verticalAlign=top;shape=mxgraph.kubernetes.icon;prIcon=pod" parent="1" vertex="1">
          <mxGeometry x="255.01000000000002" y="236" width="50" height="48" as="geometry" />
        </mxCell>
        <mxCell id="d3RqZ88ddamns4muxg5y-58" value="" style="sketch=0;html=1;dashed=0;whitespace=wrap;fillColor=#2875E2;strokeColor=#ffffff;points=[[0.005,0.63,0],[0.1,0.2,0],[0.9,0.2,0],[0.5,0,0],[0.995,0.63,0],[0.72,0.99,0],[0.5,1,0],[0.28,0.99,0]];verticalLabelPosition=bottom;align=center;verticalAlign=top;shape=mxgraph.kubernetes.icon;prIcon=pod" parent="1" vertex="1">
          <mxGeometry x="165.02" y="236" width="50" height="48" as="geometry" />
        </mxCell>
        <mxCell id="d3RqZ88ddamns4muxg5y-57" value="" style="sketch=0;html=1;dashed=0;whitespace=wrap;fillColor=#2875E2;strokeColor=#ffffff;points=[[0.005,0.63,0],[0.1,0.2,0],[0.9,0.2,0],[0.5,0,0],[0.995,0.63,0],[0.72,0.99,0],[0.5,1,0],[0.28,0.99,0]];verticalLabelPosition=bottom;align=center;verticalAlign=top;shape=mxgraph.kubernetes.icon;prIcon=pod" parent="1" vertex="1">
          <mxGeometry x="645.81" y="452" width="50" height="48" as="geometry" />
        </mxCell>
        <mxCell id="d3RqZ88ddamns4muxg5y-56" value="" style="sketch=0;html=1;dashed=0;whitespace=wrap;fillColor=#2875E2;strokeColor=#ffffff;points=[[0.005,0.63,0],[0.1,0.2,0],[0.9,0.2,0],[0.5,0,0],[0.995,0.63,0],[0.72,0.99,0],[0.5,1,0],[0.28,0.99,0]];verticalLabelPosition=bottom;align=center;verticalAlign=top;shape=mxgraph.kubernetes.icon;prIcon=pod" parent="1" vertex="1">
          <mxGeometry x="345.02" y="476" width="50" height="48" as="geometry" />
        </mxCell>
        <mxCell id="d3RqZ88ddamns4muxg5y-55" value="" style="sketch=0;html=1;dashed=0;whitespace=wrap;fillColor=#2875E2;strokeColor=#ffffff;points=[[0.005,0.63,0],[0.1,0.2,0],[0.9,0.2,0],[0.5,0,0],[0.995,0.63,0],[0.72,0.99,0],[0.5,1,0],[0.28,0.99,0]];verticalLabelPosition=bottom;align=center;verticalAlign=top;shape=mxgraph.kubernetes.icon;prIcon=pod" parent="1" vertex="1">
          <mxGeometry x="344.99" y="374" width="50" height="48" as="geometry" />
        </mxCell>
        <mxCell id="d3RqZ88ddamns4muxg5y-54" value="" style="sketch=0;html=1;dashed=0;whitespace=wrap;fillColor=#2875E2;strokeColor=#ffffff;points=[[0.005,0.63,0],[0.1,0.2,0],[0.9,0.2,0],[0.5,0,0],[0.995,0.63,0],[0.72,0.99,0],[0.5,1,0],[0.28,0.99,0]];verticalLabelPosition=bottom;align=center;verticalAlign=top;shape=mxgraph.kubernetes.icon;prIcon=pod" parent="1" vertex="1">
          <mxGeometry x="631.25" y="236" width="50" height="48" as="geometry" />
        </mxCell>
        <mxCell id="d3RqZ88ddamns4muxg5y-53" value="" style="sketch=0;html=1;dashed=0;whitespace=wrap;fillColor=#2875E2;strokeColor=#ffffff;points=[[0.005,0.63,0],[0.1,0.2,0],[0.9,0.2,0],[0.5,0,0],[0.995,0.63,0],[0.72,0.99,0],[0.5,1,0],[0.28,0.99,0]];verticalLabelPosition=bottom;align=center;verticalAlign=top;shape=mxgraph.kubernetes.icon;prIcon=pod" parent="1" vertex="1">
          <mxGeometry x="471.23" y="236" width="50" height="48" as="geometry" />
        </mxCell>
        <mxCell id="d3RqZ88ddamns4muxg5y-16" value="Kunernetes&lt;br&gt;API" style="sketch=0;html=1;dashed=0;whitespace=wrap;fillColor=#2875E2;strokeColor=#ffffff;points=[[0.005,0.63,0],[0.1,0.2,0],[0.9,0.2,0],[0.5,0,0],[0.995,0.63,0],[0.72,0.99,0],[0.5,1,0],[0.28,0.99,0]];verticalLabelPosition=bottom;align=center;verticalAlign=top;shape=mxgraph.kubernetes.icon;prIcon=api" parent="1" vertex="1">
          <mxGeometry x="20" y="120" width="50" height="48" as="geometry" />
        </mxCell>
        <mxCell id="d3RqZ88ddamns4muxg5y-17" value="Orchestrator" style="sketch=0;html=1;dashed=0;whitespace=wrap;fillColor=#2875E2;strokeColor=#ffffff;points=[[0.005,0.63,0],[0.1,0.2,0],[0.9,0.2,0],[0.5,0,0],[0.995,0.63,0],[0.72,0.99,0],[0.5,1,0],[0.28,0.99,0]];verticalLabelPosition=bottom;align=center;verticalAlign=top;shape=mxgraph.kubernetes.icon;prIcon=pod" parent="1" vertex="1">
          <mxGeometry x="160.01" y="120" width="50" height="48" as="geometry" />
        </mxCell>
        <mxCell id="d3RqZ88ddamns4muxg5y-73" value="" style="edgeStyle=orthogonalEdgeStyle;rounded=0;orthogonalLoop=1;jettySize=auto;html=1;entryX=0.5;entryY=0;entryDx=0;entryDy=0;entryPerimeter=0;exitX=0.5;exitY=1;exitDx=0;exitDy=0;exitPerimeter=0;" parent="1" edge="1">
          <mxGeometry relative="1" as="geometry">
            <mxPoint x="320" y="200" as="sourcePoint" />
          </mxGeometry>
        </mxCell>
        <mxCell id="d3RqZ88ddamns4muxg5y-18" value="httpd" style="sketch=0;html=1;dashed=0;whitespace=wrap;fillColor=#2875E2;strokeColor=#ffffff;points=[[0.005,0.63,0],[0.1,0.2,0],[0.9,0.2,0],[0.5,0,0],[0.995,0.63,0],[0.72,0.99,0],[0.5,1,0],[0.28,0.99,0]];verticalLabelPosition=middle;align=left;verticalAlign=middle;shape=mxgraph.kubernetes.icon;prIcon=pod;labelPosition=right;" parent="1" vertex="1">
          <mxGeometry x="250" y="120" width="50" height="48" as="geometry" />
        </mxCell>
        <mxCell id="d3RqZ88ddamns4muxg5y-19" value="UI" style="sketch=0;html=1;dashed=0;whitespace=wrap;fillColor=#2875E2;strokeColor=#ffffff;points=[[0.005,0.63,0],[0.1,0.2,0],[0.9,0.2,0],[0.5,0,0],[0.995,0.63,0],[0.72,0.99,0],[0.5,1,0],[0.28,0.99,0]];verticalLabelPosition=bottom;align=center;verticalAlign=top;shape=mxgraph.kubernetes.icon;prIcon=pod" parent="1" vertex="1">
          <mxGeometry x="160.02" y="232" width="50" height="48" as="geometry" />
        </mxCell>
        <mxCell id="d3RqZ88ddamns4muxg5y-20" value="API" style="sketch=0;html=1;dashed=0;whitespace=wrap;fillColor=#2875E2;strokeColor=#ffffff;points=[[0.005,0.63,0],[0.1,0.2,0],[0.9,0.2,0],[0.5,0,0],[0.995,0.63,0],[0.72,0.99,0],[0.5,1,0],[0.28,0.99,0]];verticalLabelPosition=bottom;align=center;verticalAlign=top;shape=mxgraph.kubernetes.icon;prIcon=pod" parent="1" vertex="1">
          <mxGeometry x="250.02" y="232" width="50" height="48" as="geometry" />
        </mxCell>
        <mxCell id="d3RqZ88ddamns4muxg5y-21" value="Remote&lt;br&gt;Console" style="sketch=0;html=1;dashed=0;whitespace=wrap;fillColor=#2875E2;strokeColor=#ffffff;points=[[0.005,0.63,0],[0.1,0.2,0],[0.9,0.2,0],[0.5,0,0],[0.995,0.63,0],[0.72,0.99,0],[0.5,1,0],[0.28,0.99,0]];verticalLabelPosition=bottom;align=center;verticalAlign=top;shape=mxgraph.kubernetes.icon;prIcon=pod" parent="1" vertex="1">
          <mxGeometry x="340.02" y="232" width="50" height="48" as="geometry" />
        </mxCell>
        <mxCell id="d3RqZ88ddamns4muxg5y-22" value="PostgreSQL" style="sketch=0;html=1;dashed=0;whitespace=wrap;fillColor=#2875E2;strokeColor=#ffffff;points=[[0.005,0.63,0],[0.1,0.2,0],[0.9,0.2,0],[0.5,0,0],[0.995,0.63,0],[0.72,0.99,0],[0.5,1,0],[0.28,0.99,0]];verticalLabelPosition=bottom;align=center;verticalAlign=top;shape=mxgraph.kubernetes.icon;prIcon=pod" parent="1" vertex="1">
          <mxGeometry x="466.22" y="122" width="50" height="48" as="geometry" />
        </mxCell>
        <mxCell id="d3RqZ88ddamns4muxg5y-23" value="memcached" style="sketch=0;html=1;dashed=0;whitespace=wrap;fillColor=#2875E2;strokeColor=#ffffff;points=[[0.005,0.63,0],[0.1,0.2,0],[0.9,0.2,0],[0.5,0,0],[0.995,0.63,0],[0.72,0.99,0],[0.5,1,0],[0.28,0.99,0]];verticalLabelPosition=bottom;align=center;verticalAlign=top;shape=mxgraph.kubernetes.icon;prIcon=pod" parent="1" vertex="1">
          <mxGeometry x="626.22" y="122" width="50" height="48" as="geometry" />
        </mxCell>
        <mxCell id="d3RqZ88ddamns4muxg5y-24" value="Kafka" style="sketch=0;html=1;dashed=0;whitespace=wrap;fillColor=#2875E2;strokeColor=#ffffff;points=[[0.005,0.63,0],[0.1,0.2,0],[0.9,0.2,0],[0.5,0,0],[0.995,0.63,0],[0.72,0.99,0],[0.5,1,0],[0.28,0.99,0]];verticalLabelPosition=bottom;align=center;verticalAlign=top;shape=mxgraph.kubernetes.icon;prIcon=pod" parent="1" vertex="1">
          <mxGeometry x="546.22" y="122" width="50" height="48" as="geometry" />
        </mxCell>
        <mxCell id="d3RqZ88ddamns4muxg5y-25" value="Queue&lt;br&gt;Workers" style="sketch=0;html=1;dashed=0;whitespace=wrap;fillColor=#2875E2;strokeColor=#ffffff;points=[[0.005,0.63,0],[0.1,0.2,0],[0.9,0.2,0],[0.5,0,0],[0.995,0.63,0],[0.72,0.99,0],[0.5,1,0],[0.28,0.99,0]];verticalLabelPosition=bottom;align=center;verticalAlign=top;shape=mxgraph.kubernetes.icon;prIcon=pod" parent="1" vertex="1">
          <mxGeometry x="466.23" y="232" width="50" height="48" as="geometry" />
        </mxCell>
        <mxCell id="d3RqZ88ddamns4muxg5y-27" value="Inventory&lt;br&gt;Collector" style="sketch=0;html=1;dashed=0;whitespace=wrap;fillColor=#2875E2;strokeColor=#ffffff;points=[[0.005,0.63,0],[0.1,0.2,0],[0.9,0.2,0],[0.5,0,0],[0.995,0.63,0],[0.72,0.99,0],[0.5,1,0],[0.28,0.99,0]];verticalLabelPosition=bottom;align=center;verticalAlign=top;shape=mxgraph.kubernetes.icon;prIcon=pod" parent="1" vertex="1">
          <mxGeometry x="160.01" y="370" width="50" height="48" as="geometry" />
        </mxCell>
        <mxCell id="d3RqZ88ddamns4muxg5y-28" value="Event&lt;br&gt;Collector" style="sketch=0;html=1;dashed=0;whitespace=wrap;fillColor=#2875E2;strokeColor=#ffffff;points=[[0.005,0.63,0],[0.1,0.2,0],[0.9,0.2,0],[0.5,0,0],[0.995,0.63,0],[0.72,0.99,0],[0.5,1,0],[0.28,0.99,0]];verticalLabelPosition=bottom;align=center;verticalAlign=top;shape=mxgraph.kubernetes.icon;prIcon=pod" parent="1" vertex="1">
          <mxGeometry x="250.01" y="370" width="50" height="48" as="geometry" />
        </mxCell>
        <mxCell id="d3RqZ88ddamns4muxg5y-29" value="Metrics&lt;br&gt;Collector" style="sketch=0;html=1;dashed=0;whitespace=wrap;fillColor=#2875E2;strokeColor=#ffffff;points=[[0.005,0.63,0],[0.1,0.2,0],[0.9,0.2,0],[0.5,0,0],[0.995,0.63,0],[0.72,0.99,0],[0.5,1,0],[0.28,0.99,0]];verticalLabelPosition=bottom;align=center;verticalAlign=top;shape=mxgraph.kubernetes.icon;prIcon=pod" parent="1" vertex="1">
          <mxGeometry x="340.01" y="370" width="50" height="48" as="geometry" />
        </mxCell>
        <mxCell id="d3RqZ88ddamns4muxg5y-30" value="Inventory&lt;br&gt;Collector" style="sketch=0;html=1;dashed=0;whitespace=wrap;fillColor=#2875E2;strokeColor=#ffffff;points=[[0.005,0.63,0],[0.1,0.2,0],[0.9,0.2,0],[0.5,0,0],[0.995,0.63,0],[0.72,0.99,0],[0.5,1,0],[0.28,0.99,0]];verticalLabelPosition=bottom;align=center;verticalAlign=top;shape=mxgraph.kubernetes.icon;prIcon=pod" parent="1" vertex="1">
          <mxGeometry x="160.01999999999998" y="472" width="50" height="48" as="geometry" />
        </mxCell>
        <mxCell id="d3RqZ88ddamns4muxg5y-31" value="Event&lt;br&gt;Collector" style="sketch=0;html=1;dashed=0;whitespace=wrap;fillColor=#2875E2;strokeColor=#ffffff;points=[[0.005,0.63,0],[0.1,0.2,0],[0.9,0.2,0],[0.5,0,0],[0.995,0.63,0],[0.72,0.99,0],[0.5,1,0],[0.28,0.99,0]];verticalLabelPosition=bottom;align=center;verticalAlign=top;shape=mxgraph.kubernetes.icon;prIcon=pod" parent="1" vertex="1">
          <mxGeometry x="250.01999999999998" y="472" width="50" height="48" as="geometry" />
        </mxCell>
        <mxCell id="d3RqZ88ddamns4muxg5y-32" value="Metrics&lt;br&gt;Collector" style="sketch=0;html=1;dashed=0;whitespace=wrap;fillColor=#2875E2;strokeColor=#ffffff;points=[[0.005,0.63,0],[0.1,0.2,0],[0.9,0.2,0],[0.5,0,0],[0.995,0.63,0],[0.72,0.99,0],[0.5,1,0],[0.28,0.99,0]];verticalLabelPosition=bottom;align=center;verticalAlign=top;shape=mxgraph.kubernetes.icon;prIcon=pod" parent="1" vertex="1">
          <mxGeometry x="340.02" y="472" width="50" height="48" as="geometry" />
        </mxCell>
        <mxCell id="d3RqZ88ddamns4muxg5y-33" value="Operations&lt;br&gt;Worker" style="sketch=0;html=1;dashed=0;whitespace=wrap;fillColor=#2875E2;strokeColor=#ffffff;points=[[0.005,0.63,0],[0.1,0.2,0],[0.9,0.2,0],[0.5,0,0],[0.995,0.63,0],[0.72,0.99,0],[0.5,1,0],[0.28,0.99,0]];verticalLabelPosition=bottom;align=center;verticalAlign=top;shape=mxgraph.kubernetes.icon;prIcon=pod" parent="1" vertex="1">
          <mxGeometry x="429.97" y="472" width="50" height="48" as="geometry" />
        </mxCell>
        <mxCell id="d3RqZ88ddamns4muxg5y-34" value="Event&lt;br&gt;Handler" style="sketch=0;html=1;dashed=0;whitespace=wrap;fillColor=#2875E2;strokeColor=#ffffff;points=[[0.005,0.63,0],[0.1,0.2,0],[0.9,0.2,0],[0.5,0,0],[0.995,0.63,0],[0.72,0.99,0],[0.5,1,0],[0.28,0.99,0]];verticalLabelPosition=bottom;align=center;verticalAlign=top;shape=mxgraph.kubernetes.icon;prIcon=pod" parent="1" vertex="1">
          <mxGeometry x="560.8" y="448" width="50" height="48" as="geometry" />
        </mxCell>
        <mxCell id="d3RqZ88ddamns4muxg5y-35" value="Metrics&lt;br&gt;Handler" style="sketch=0;html=1;dashed=0;whitespace=wrap;fillColor=#2875E2;strokeColor=#ffffff;points=[[0.005,0.63,0],[0.1,0.2,0],[0.9,0.2,0],[0.5,0,0],[0.995,0.63,0],[0.72,0.99,0],[0.5,1,0],[0.28,0.99,0]];verticalLabelPosition=bottom;align=center;verticalAlign=top;shape=mxgraph.kubernetes.icon;prIcon=pod" parent="1" vertex="1">
          <mxGeometry x="640.81" y="448" width="50" height="48" as="geometry" />
        </mxCell>
        <mxCell id="d3RqZ88ddamns4muxg5y-36" value="Automation&lt;br&gt;Worker" style="sketch=0;html=1;dashed=0;whitespace=wrap;fillColor=#2875E2;strokeColor=#ffffff;points=[[0.005,0.63,0],[0.1,0.2,0],[0.9,0.2,0],[0.5,0,0],[0.995,0.63,0],[0.72,0.99,0],[0.5,1,0],[0.28,0.99,0]];verticalLabelPosition=bottom;align=center;verticalAlign=top;shape=mxgraph.kubernetes.icon;prIcon=pod" parent="1" vertex="1">
          <mxGeometry x="546.24" y="232" width="50" height="48" as="geometry" />
        </mxCell>
        <mxCell id="d3RqZ88ddamns4muxg5y-37" value="Other&lt;br&gt;Workers" style="sketch=0;html=1;dashed=0;whitespace=wrap;fillColor=#2875E2;strokeColor=#ffffff;points=[[0.005,0.63,0],[0.1,0.2,0],[0.9,0.2,0],[0.5,0,0],[0.995,0.63,0],[0.72,0.99,0],[0.5,1,0],[0.28,0.99,0]];verticalLabelPosition=bottom;align=center;verticalAlign=top;shape=mxgraph.kubernetes.icon;prIcon=pod" parent="1" vertex="1">
          <mxGeometry x="626.25" y="232" width="50" height="48" as="geometry" />
        </mxCell>
        <mxCell id="d3RqZ88ddamns4muxg5y-40" value="(443)" style="sketch=0;html=1;dashed=0;whitespace=wrap;fillColor=#2875E2;strokeColor=#ffffff;points=[[0.005,0.63,0],[0.1,0.2,0],[0.9,0.2,0],[0.5,0,0],[0.995,0.63,0],[0.72,0.99,0],[0.5,1,0],[0.28,0.99,0]];verticalLabelPosition=middle;align=left;verticalAlign=middle;shape=mxgraph.kubernetes.icon;prIcon=svc;fontSize=8;labelPosition=right;" parent="1" vertex="1">
          <mxGeometry x="264.58000000000004" y="110" width="20.83" height="20" as="geometry" />
        </mxCell>
        <mxCell id="d3RqZ88ddamns4muxg5y-41" value="&lt;font style=&quot;font-size: 8px;&quot;&gt;(5432)&lt;/font&gt;" style="sketch=0;html=1;dashed=0;whitespace=wrap;fillColor=#2875E2;strokeColor=#ffffff;points=[[0.005,0.63,0],[0.1,0.2,0],[0.9,0.2,0],[0.5,0,0],[0.995,0.63,0],[0.72,0.99,0],[0.5,1,0],[0.28,0.99,0]];verticalLabelPosition=middle;align=left;verticalAlign=middle;shape=mxgraph.kubernetes.icon;prIcon=svc;labelPosition=right;" parent="1" vertex="1">
          <mxGeometry x="480.80000000000007" y="110" width="20.83" height="20" as="geometry" />
        </mxCell>
        <mxCell id="d3RqZ88ddamns4muxg5y-42" value="(9093)" style="sketch=0;html=1;dashed=0;whitespace=wrap;fillColor=#2875E2;strokeColor=#ffffff;points=[[0.005,0.63,0],[0.1,0.2,0],[0.9,0.2,0],[0.5,0,0],[0.995,0.63,0],[0.72,0.99,0],[0.5,1,0],[0.28,0.99,0]];verticalLabelPosition=middle;align=left;verticalAlign=middle;shape=mxgraph.kubernetes.icon;prIcon=svc;labelPosition=right;fontSize=8;" parent="1" vertex="1">
          <mxGeometry x="560.8000000000001" y="110" width="20.83" height="20" as="geometry" />
        </mxCell>
        <mxCell id="d3RqZ88ddamns4muxg5y-43" value="(11211)" style="sketch=0;html=1;dashed=0;whitespace=wrap;fillColor=#2875E2;strokeColor=#ffffff;points=[[0.005,0.63,0],[0.1,0.2,0],[0.9,0.2,0],[0.5,0,0],[0.995,0.63,0],[0.72,0.99,0],[0.5,1,0],[0.28,0.99,0]];verticalLabelPosition=middle;align=left;verticalAlign=middle;shape=mxgraph.kubernetes.icon;prIcon=svc;labelPosition=right;fontSize=8;" parent="1" vertex="1">
          <mxGeometry x="640.8100000000001" y="110" width="20.83" height="20" as="geometry" />
        </mxCell>
        <mxCell id="d3RqZ88ddamns4muxg5y-45" value="(3000)" style="sketch=0;html=1;dashed=0;whitespace=wrap;fillColor=#2875E2;strokeColor=#ffffff;points=[[0.005,0.63,0],[0.1,0.2,0],[0.9,0.2,0],[0.5,0,0],[0.995,0.63,0],[0.72,0.99,0],[0.5,1,0],[0.28,0.99,0]];verticalLabelPosition=middle;align=left;verticalAlign=middle;shape=mxgraph.kubernetes.icon;prIcon=svc;labelPosition=right;fontSize=8;" parent="1" vertex="1">
          <mxGeometry x="174.61000000000004" y="220" width="20.83" height="20" as="geometry" />
        </mxCell>
        <mxCell id="d3RqZ88ddamns4muxg5y-46" value="(3000)" style="sketch=0;html=1;dashed=0;whitespace=wrap;fillColor=#2875E2;strokeColor=#ffffff;points=[[0.005,0.63,0],[0.1,0.2,0],[0.9,0.2,0],[0.5,0,0],[0.995,0.63,0],[0.72,0.99,0],[0.5,1,0],[0.28,0.99,0]];verticalLabelPosition=middle;align=left;verticalAlign=middle;shape=mxgraph.kubernetes.icon;prIcon=svc;fontSize=8;labelPosition=right;" parent="1" vertex="1">
          <mxGeometry x="264.6" y="220" width="20.83" height="20" as="geometry" />
        </mxCell>
        <mxCell id="d3RqZ88ddamns4muxg5y-47" value="(3000)" style="sketch=0;html=1;dashed=0;whitespace=wrap;fillColor=#2875E2;strokeColor=#ffffff;points=[[0.005,0.63,0],[0.1,0.2,0],[0.9,0.2,0],[0.5,0,0],[0.995,0.63,0],[0.72,0.99,0],[0.5,1,0],[0.28,0.99,0]];verticalLabelPosition=middle;align=left;verticalAlign=middle;shape=mxgraph.kubernetes.icon;prIcon=svc;fontSize=8;labelPosition=right;" parent="1" vertex="1">
          <mxGeometry x="354.6" y="220" width="20.83" height="20" as="geometry" />
        </mxCell>
        <mxCell id="d3RqZ88ddamns4muxg5y-48" value="" style="sketch=0;html=1;dashed=0;whitespace=wrap;fillColor=#2875E2;strokeColor=#ffffff;points=[[0.005,0.63,0],[0.1,0.2,0],[0.9,0.2,0],[0.5,0,0],[0.995,0.63,0],[0.72,0.99,0],[0.5,1,0],[0.28,0.99,0]];verticalLabelPosition=bottom;align=center;verticalAlign=top;shape=mxgraph.kubernetes.icon;prIcon=pv" parent="1" vertex="1">
          <mxGeometry x="459.97" y="150" width="20" height="20" as="geometry" />
        </mxCell>
        <mxCell id="d3RqZ88ddamns4muxg5y-49" value="" style="sketch=0;html=1;dashed=0;whitespace=wrap;fillColor=#2875E2;strokeColor=#ffffff;points=[[0.005,0.63,0],[0.1,0.2,0],[0.9,0.2,0],[0.5,0,0],[0.995,0.63,0],[0.72,0.99,0],[0.5,1,0],[0.28,0.99,0]];verticalLabelPosition=bottom;align=center;verticalAlign=top;shape=mxgraph.kubernetes.icon;prIcon=pv" parent="1" vertex="1">
          <mxGeometry x="539.97" y="150" width="20.83" height="20" as="geometry" />
        </mxCell>
        <mxCell id="d3RqZ88ddamns4muxg5y-50" value="Namespace" style="sketch=0;html=1;dashed=0;whitespace=wrap;fillColor=#2875E2;strokeColor=#ffffff;points=[[0.005,0.63,0],[0.1,0.2,0],[0.9,0.2,0],[0.5,0,0],[0.995,0.63,0],[0.72,0.99,0],[0.5,1,0],[0.28,0.99,0]];verticalLabelPosition=middle;align=left;verticalAlign=bottom;shape=mxgraph.kubernetes.icon;prIcon=ns;labelPosition=right;spacingBottom=0;horizontal=1;fontSize=8;" parent="1" vertex="1">
          <mxGeometry x="70" y="40" width="40" height="40" as="geometry" />
        </mxCell>
        <mxCell id="d3RqZ88ddamns4muxg5y-61" value="" style="sketch=0;html=1;dashed=0;whitespace=wrap;fillColor=#2875E2;strokeColor=#ffffff;points=[[0.005,0.63,0],[0.1,0.2,0],[0.9,0.2,0],[0.5,0,0],[0.995,0.63,0],[0.72,0.99,0],[0.5,1,0],[0.28,0.99,0]];verticalLabelPosition=bottom;align=center;verticalAlign=top;shape=mxgraph.kubernetes.icon;prIcon=sa" parent="1" vertex="1">
          <mxGeometry x="195.42" y="146" width="20" height="28" as="geometry" />
        </mxCell>
        <mxCell id="d3RqZ88ddamns4muxg5y-66" value="" style="sketch=0;html=1;dashed=0;whitespace=wrap;fillColor=#2875E2;strokeColor=#ffffff;points=[[0.005,0.63,0],[0.1,0.2,0],[0.9,0.2,0],[0.5,0,0],[0.995,0.63,0],[0.72,0.99,0],[0.5,1,0],[0.28,0.99,0]];verticalLabelPosition=bottom;align=center;verticalAlign=top;shape=mxgraph.kubernetes.icon;prIcon=sa" parent="1" vertex="1">
          <mxGeometry x="581.23" y="256" width="20" height="28" as="geometry" />
        </mxCell>
        <mxCell id="d3RqZ88ddamns4muxg5y-67" style="edgeStyle=orthogonalEdgeStyle;rounded=0;orthogonalLoop=1;jettySize=auto;html=1;exitX=0.005;exitY=0.63;exitDx=0;exitDy=0;exitPerimeter=0;entryX=0.995;entryY=0.63;entryDx=0;entryDy=0;entryPerimeter=0;" parent="1" source="d3RqZ88ddamns4muxg5y-17" target="d3RqZ88ddamns4muxg5y-16" edge="1">
          <mxGeometry relative="1" as="geometry" />
        </mxCell>
        <mxCell id="d3RqZ88ddamns4muxg5y-69" value="Ingress &lt;font style=&quot;font-size: 8px;&quot;&gt;(443 / Cert)&lt;/font&gt;" style="sketch=0;html=1;dashed=0;whitespace=wrap;fillColor=#2875E2;strokeColor=#ffffff;points=[[0.005,0.63,0],[0.1,0.2,0],[0.9,0.2,0],[0.5,0,0],[0.995,0.63,0],[0.72,0.99,0],[0.5,1,0],[0.28,0.99,0]];verticalLabelPosition=middle;align=left;verticalAlign=middle;shape=mxgraph.kubernetes.icon;prIcon=ing;labelPosition=right;fontSize=12;spacingTop=-4;" parent="1" vertex="1">
          <mxGeometry x="249.99" y="20" width="50" height="48" as="geometry" />
        </mxCell>
        <mxCell id="d3RqZ88ddamns4muxg5y-70" value="Amazon =&amp;gt;" style="text;strokeColor=none;align=center;fillColor=none;html=1;verticalAlign=middle;whiteSpace=wrap;rounded=0;fontSize=8;" parent="1" vertex="1">
          <mxGeometry x="100.00999999999999" y="383" width="60" height="30" as="geometry" />
        </mxCell>
        <mxCell id="d3RqZ88ddamns4muxg5y-71" style="edgeStyle=orthogonalEdgeStyle;rounded=0;orthogonalLoop=1;jettySize=auto;html=1;exitX=0.5;exitY=1;exitDx=0;exitDy=0;exitPerimeter=0;entryX=0.5;entryY=0;entryDx=0;entryDy=0;entryPerimeter=0;" parent="1" source="d3RqZ88ddamns4muxg5y-69" target="d3RqZ88ddamns4muxg5y-40" edge="1">
          <mxGeometry relative="1" as="geometry" />
        </mxCell>
        <mxCell id="d3RqZ88ddamns4muxg5y-77" value="VMware =&amp;gt;" style="text;strokeColor=none;align=center;fillColor=none;html=1;verticalAlign=middle;whiteSpace=wrap;rounded=0;fontSize=8;" parent="1" vertex="1">
          <mxGeometry x="100.00999999999999" y="485" width="60" height="30" as="geometry" />
        </mxCell>
        <mxCell id="d3RqZ88ddamns4muxg5y-78" value="Shared by Providers" style="text;strokeColor=none;align=center;fillColor=none;html=1;verticalAlign=middle;whiteSpace=wrap;rounded=0;fontSize=8;" parent="1" vertex="1">
          <mxGeometry x="579.5699999999999" y="400" width="91.24" height="30" as="geometry" />
        </mxCell>
        <mxCell id="d3RqZ88ddamns4muxg5y-79" style="edgeStyle=orthogonalEdgeStyle;orthogonalLoop=1;jettySize=auto;html=1;exitX=0.5;exitY=1;exitDx=0;exitDy=0;exitPerimeter=0;entryX=0.5;entryY=0;entryDx=0;entryDy=0;entryPerimeter=0;curved=1;" parent="1" source="d3RqZ88ddamns4muxg5y-18" target="d3RqZ88ddamns4muxg5y-45" edge="1">
          <mxGeometry relative="1" as="geometry">
            <Array as="points">
              <mxPoint x="275" y="200" />
              <mxPoint x="185" y="200" />
            </Array>
          </mxGeometry>
        </mxCell>
        <mxCell id="d3RqZ88ddamns4muxg5y-80" style="edgeStyle=elbowEdgeStyle;orthogonalLoop=1;jettySize=auto;html=1;exitX=0.5;exitY=1;exitDx=0;exitDy=0;exitPerimeter=0;entryX=0.5;entryY=0;entryDx=0;entryDy=0;entryPerimeter=0;elbow=vertical;curved=1;" parent="1" source="d3RqZ88ddamns4muxg5y-18" target="d3RqZ88ddamns4muxg5y-47" edge="1">
          <mxGeometry relative="1" as="geometry">
            <Array as="points">
              <mxPoint x="320" y="200" />
            </Array>
          </mxGeometry>
        </mxCell>
        <mxCell id="d3RqZ88ddamns4muxg5y-85" value="" style="orthogonalLoop=1;jettySize=auto;html=1;rounded=0;endArrow=none;endFill=0;dashed=1;" parent="1" edge="1">
          <mxGeometry width="80" relative="1" as="geometry">
            <mxPoint x="90" y="340" as="sourcePoint" />
            <mxPoint x="740" y="340" as="targetPoint" />
          </mxGeometry>
        </mxCell>
        <mxCell id="d3RqZ88ddamns4muxg5y-86" value="" style="edgeStyle=none;orthogonalLoop=1;jettySize=auto;html=1;rounded=0;dashed=1;endArrow=none;endFill=0;entryX=0.646;entryY=1;entryDx=0;entryDy=0;entryPerimeter=0;" parent="1" target="d3RqZ88ddamns4muxg5y-82" edge="1">
          <mxGeometry width="80" relative="1" as="geometry">
            <mxPoint x="510" y="338" as="sourcePoint" />
            <mxPoint x="910" y="440" as="targetPoint" />
            <Array as="points" />
          </mxGeometry>
        </mxCell>
        <mxCell id="d3RqZ88ddamns4muxg5y-88" value="Internet" style="text;html=1;align=center;verticalAlign=middle;resizable=0;points=[];autosize=1;strokeColor=none;fillColor=none;" parent="1" vertex="1">
          <mxGeometry width="60" height="30" as="geometry" />
        </mxCell>
        <mxCell id="d3RqZ88ddamns4muxg5y-1" value="" style="edgeStyle=none;orthogonalLoop=1;jettySize=auto;html=1;rounded=0;exitX=0.5;exitY=1;exitDx=0;exitDy=0;exitPerimeter=0;entryX=0.5;entryY=0;entryDx=0;entryDy=0;entryPerimeter=0;" edge="1" parent="1" source="d3RqZ88ddamns4muxg5y-18" target="d3RqZ88ddamns4muxg5y-46">
          <mxGeometry width="80" relative="1" as="geometry">
            <mxPoint x="430" y="360" as="sourcePoint" />
            <mxPoint x="510" y="360" as="targetPoint" />
            <Array as="points" />
          </mxGeometry>
        </mxCell>
      </root>
    </mxGraphModel>
  </diagram>
</mxfile>
